<svg width="100" height="100" viewBox="0 0 100 100" fill="none" xmlns="http://www.w3.org/2000/svg">
<circle cx="50" cy="50" r="50" fill="#FE654F"/>
<path d="M53.1485 27.5H62.275L81.765 72.5H73.375L56.935 34.5717H53.1483L53.1485 27.5ZM53.1485 59.9651V53.1504H69.235L72.735 59.9651H53.1485Z" fill="#333333"/>
<path d="M46.1425 72.5V58.1002L48.1009 59.9651H35.5548C31.9643 59.9651 28.8635 59.343 26.2523 58.1002C23.6818 56.8145 21.703 54.9931 20.3158 52.636C18.9286 50.236 18.235 47.3646 18.235 44.0218C18.235 40.5504 18.9694 37.5933 20.4382 35.1505C21.907 32.6648 23.9879 30.7791 26.6807 29.4934C29.3735 28.1648 32.5356 27.5 36.1668 27.5H53.9762V72.5H46.1425ZM18.3574 72.5L28.9451 56.4288H37.335L26.7419 72.5H18.3574ZM46.1425 55.4002V32.2576L48.1009 34.5719H36.4116C33.1476 34.5719 30.6383 35.3647 28.8839 36.9504C27.1703 38.4933 26.3135 40.8075 26.3135 43.8932C26.3135 46.8503 27.1295 49.1431 28.7615 50.7717C30.4343 52.3574 32.8824 53.1504 36.1056 53.1504H48.1009L46.1425 55.4002Z" fill="#333333"/>
</svg>
