<svg width="1000" height="1000" viewBox="0 0 1000 1000" fill="none" xmlns="http://www.w3.org/2000/svg">
<circle cx="500" cy="500" r="500" fill="#FE654F"/>
<path d="M200 692.5V307.5H271.314V632H472.091V692.5H200Z" fill="#333333"/>
<path d="M644.754 698C614.766 698 586.057 693.783 558.629 685.35C531.2 676.55 509.44 665.367 493.349 651.8L518.034 596.25C533.394 608.35 552.411 618.433 575.086 626.5C597.76 634.567 620.983 638.6 644.754 638.6C664.869 638.6 681.143 636.4 693.577 632C706.011 627.6 715.154 621.733 721.006 614.4C726.857 606.7 729.783 598.083 729.783 588.55C729.783 576.817 725.577 567.467 717.166 560.5C708.754 553.167 697.783 547.483 684.251 543.45C671.086 539.05 656.274 535.017 639.817 531.35C623.726 527.683 607.451 523.467 590.994 518.7C574.903 513.567 560.091 507.15 546.56 499.45C533.394 491.383 522.606 480.75 514.194 467.55C505.783 454.35 501.577 437.483 501.577 416.95C501.577 396.05 507.063 376.983 518.034 359.75C529.371 342.15 546.377 328.217 569.051 317.95C592.091 307.317 621.166 302 656.274 302C679.314 302 702.171 304.933 724.846 310.8C747.52 316.667 767.269 325.1 784.091 336.1L761.6 391.65C744.411 381.383 726.674 373.867 708.389 369.1C690.103 363.967 672.549 361.4 655.726 361.4C635.977 361.4 619.886 363.783 607.451 368.55C595.383 373.317 586.423 379.55 580.571 387.25C575.086 394.95 572.343 403.75 572.343 413.65C572.343 425.383 576.366 434.917 584.411 442.25C592.823 449.217 603.611 454.717 616.777 458.75C630.309 462.783 645.303 466.817 661.76 470.85C678.217 474.517 694.491 478.733 710.583 483.5C727.04 488.267 741.851 494.5 755.017 502.2C768.549 509.9 779.337 520.35 787.383 533.55C795.794 546.75 800 563.433 800 583.6C800 604.133 794.331 623.2 782.994 640.8C772.023 658.033 755.017 671.967 731.977 682.6C708.937 692.867 679.863 698 644.754 698Z" fill="#333333"/>
</svg>
